<?xml version="1.0" encoding="UTF-8" standalone="no"?> <!-- Created with Vectornator for iOS (http://vectornator.io/) --><!DOCTYPE svg PUBLIC "-//W3C//DTD SVG 1.1//EN" "http://www.w3.org/Graphics/SVG/1.1/DTD/svg11.dtd">
<svg height="100%" style="fill-rule:evenodd;clip-rule:evenodd;stroke-linecap:round;stroke-linejoin:round;" xmlns:xlink="http://www.w3.org/1999/xlink" xmlns="http://www.w3.org/2000/svg" xml:space="preserve" width="100%" xmlns:vectornator="http://vectornator.io" version="1.1" viewBox="0 0 1000 1000">
<metadata>
<vectornator:setting key="DimensionsVisible" value="1"/>
<vectornator:setting key="New" value="1"/>
<vectornator:setting key="SnapToPoints" value="0"/>
<vectornator:setting key="OutlineMode" value="0"/>
<vectornator:setting key="RulersVisible" value="1"/>
<vectornator:setting key="GuidesVisible" value="1"/>
<vectornator:setting key="SnapToEdges" value="0"/>
<vectornator:setting key="DisplayWhiteBackground" value="1"/>
<vectornator:setting key="SnapToGuides" value="1"/>
<vectornator:setting key="GridSpacing" value="5"/>
<vectornator:setting key="Units" value="Pixels"/>
<vectornator:setting key="DynamicGuides" value="0"/>
<vectornator:setting key="SnapToGrid" value="0"/>
</metadata>
<defs/>
<g id="left_eye" vectornator:layerName="left_eye">
<path stroke="#060606" stroke-opacity="0" stroke-width="50.18" d="M425.123+472.549C425.123+466.375+427.612+461.37+430.683+461.37C433.753+461.37+436.242+466.375+436.242+472.549C436.242+478.723+433.753+483.728+430.683+483.728C427.612+483.728+425.123+478.723+425.123+472.549Z" fill="#020202" stroke-linecap="round" opacity="1" stroke-linejoin="round"/>
<path stroke="#000000" stroke-width="3.01" d="M417.877+472.352C417.877+460.308+424.291+450.545+432.202+450.545C440.114+450.545+446.527+460.308+446.527+472.352C446.527+484.395+440.114+494.158+432.202+494.158C424.291+494.158+417.877+484.395+417.877+472.352Z" fill="#020202" stroke-linecap="round" fill-opacity="0" opacity="1" stroke-linejoin="round"/>
</g>
<g id="right_eye" vectornator:layerName="right_eye">
<path stroke="#000000" stroke-width="3.01" d="M507.059+472.217C507.059+460.114+513.478+450.302+521.398+450.302C529.317+450.302+535.737+460.114+535.737+472.217C535.737+484.32+529.317+494.131+521.398+494.131C513.478+494.131+507.059+484.32+507.059+472.217Z" fill="#020202" stroke-linecap="round" fill-opacity="0" opacity="1" stroke-linejoin="round"/>
<path stroke="#060606" stroke-opacity="0" stroke-width="50.18" d="M513.306+473.03C513.306+466.856+515.795+461.851+518.866+461.851C521.936+461.851+524.426+466.856+524.426+473.03C524.426+479.204+521.936+484.209+518.866+484.209C515.795+484.209+513.306+479.204+513.306+473.03Z" fill="#020202" stroke-linecap="round" opacity="1" stroke-linejoin="round"/>
</g>
<g id="mouth" vectornator:layerName="mouth">
<path stroke="#000000" stroke-width="1.46" d="M452.464+500.425C452.464+497.179+455.743+494.548+459.787+494.548C463.832+494.548+467.111+497.179+467.111+500.425C467.111+503.67+463.832+506.301+459.787+506.301C455.743+506.301+452.464+503.67+452.464+500.425Z" fill="#020202" stroke-linecap="round" opacity="1" stroke-linejoin="round"/>
<path stroke="#000000" stroke-width="5" d="M458.974+505.331L459.155+517.989" fill="none" stroke-linecap="round" opacity="1" stroke-linejoin="round"/>
<path stroke="#000000" stroke-width="5" d="M457.851+518.538L440.026+525.034" fill="none" stroke-linecap="round" opacity="1" stroke-linejoin="round"/>
<path stroke="#000000" stroke-width="5" d="M458.775+516.629L481.775+525.858" fill="none" stroke-linecap="round" opacity="1" stroke-linejoin="round"/>
<path stroke="#000000" stroke-width="1.33" d="M453.368+443.61C453.159+442.356+453.38+440.909+452.587+439.844C442.612+437.864+434.194+430.546+426.697+423.962C426.683+423.947+426.669+423.932+426.655+423.917C424.815+425.756+422.975+427.596+421.136+429.435C430.325+436.939+440.182+447.023+452.561+447.516C453.403+446.435+453.175+444.909+453.368+443.61" fill="#000000" stroke-linecap="round" opacity="1" stroke-linejoin="round"/>
<path stroke="#000000" stroke-width="1.33" d="M498.345+444.695C498.555+443.441+498.333+441.994+499.126+440.929C509.101+438.949+517.519+431.631+525.016+425.047C525.03+425.032+525.044+425.017+525.058+425.002C526.898+426.841+528.738+428.681+530.578+430.52C521.388+438.024+511.531+448.108+499.153+448.6C498.31+447.52+498.538+445.994+498.345+444.695" fill="#000000" stroke-linecap="round" opacity="1" stroke-linejoin="round"/>
</g>
<g id="cheeks" vectornator:layerName="cheeks">
<path stroke="#000000" stroke-opacity="0" stroke-width="0.4" d="M522.564+503.102C522.564+498.9+527.815+495.494+534.292+495.494C540.77+495.494+546.02+498.9+546.02+503.102C546.02+507.303+540.77+510.709+534.292+510.709C527.815+510.709+522.564+507.303+522.564+503.102Z" fill="#e16994" stroke-linecap="round" fill-opacity="0.798673" opacity="0.6" stroke-linejoin="round"/>
<path stroke="#000000" stroke-opacity="0" stroke-width="0.4" d="M405.706+503.524C405.706+499.323+410.957+495.917+417.435+495.917C423.912+495.917+429.163+499.323+429.163+503.524C429.163+507.726+423.912+511.132+417.435+511.132C410.957+511.132+405.706+507.726+405.706+503.524Z" fill="#e16994" stroke-linecap="round" fill-opacity="0.798673" opacity="0.6" stroke-linejoin="round"/>
<path stroke="#000000" stroke-opacity="0" stroke-width="0.4" d="M550.669+494.86C549.255+503.217+567.084+507.838+568.319+498.264C563.887+495.558+553.25+488.62+550.669+494.86" fill="#0c0c0c" stroke-linecap="round" opacity="1" stroke-linejoin="round"/>
<path stroke="#000000" stroke-opacity="0" stroke-width="0.4" d="M550.035+508.596C547.018+515.778+565.75+522.811+567.945+514.292C564.382+509.087+554.51+503.733+550.035+508.596" fill="#0c0c0c" stroke-linecap="round" opacity="1" stroke-linejoin="round"/>
<path stroke="#000000" stroke-opacity="0" stroke-width="0.4" d="M542.217+523.811C537.179+529.432+548.225+535.196+553.665+533.719C558.99+527.344+546.604+519.582+542.217+523.811" fill="#0c0c0c" stroke-linecap="round" opacity="1" stroke-linejoin="round"/>
<path stroke="#000000" stroke-opacity="0" stroke-width="0.4" d="M536.089+535.222C532.212+541.195+546.995+553.788+550.024+542.841C547.163+538.967+540.574+529.424+536.089+535.222" fill="#0c0c0c" stroke-linecap="round" opacity="1" stroke-linejoin="round"/>
</g>
<g id="body" vectornator:layerName="body">
<path stroke="#000000" stroke-width="0.4" d="M566.822+397.113C566.386+395.84+567.334+393.346+565.836+392.994C525.034+382.143+480.209+380.481+439.314+390.778C439.229+390.818+439.145+390.858+439.06+390.897C440.079+393.192+441.099+395.486+442.119+397.781C482.192+390.666+524.931+393.543+565.006+400.816C566.117+400.37+566.193+398.264+566.822+397.113" fill="#000000" stroke-linecap="round" opacity="1" stroke-linejoin="round"/>
<path stroke="#000000" stroke-width="0.4" d="M383.484+421.158C382.425+418.269+380.439+416.891+378.045+419.461C348.159+454.481+346.264+518.357+388.605+545.314C388.739+545.458+388.874+545.603+389.008+545.747C390.874+544.068+392.739+542.389+394.605+540.711C357.067+515.163+359.978+458.077+383.808+424.928C383.688+423.674+383.629+422.407+383.484+421.158" fill="#000000" stroke-linecap="round" opacity="1" stroke-linejoin="round"/>
<path stroke="#000000" stroke-width="0.4" d="M609.131+438.96C608.076+439.853+607+440.724+605.961+441.633C608.783+447.773+612.783+453.353+614.585+459.972C626.091+514.279+634.256+569.581+633.576+625.242C633.576+625.262+633.576+625.283+633.577+625.303C636.083+625.303+638.59+625.303+641.097+625.304C643.348+568.736+637.832+511.88+622.702+457.268C620.557+450.615+616.657+444.837+613.309+438.801C612.032+438.664+610.503+438.875+609.131+438.96" fill="#000000" stroke-linecap="round" opacity="1" stroke-linejoin="round"/>
<path stroke="#000000" stroke-width="0.4" d="M445.444+383.242C446.724+382.749+448.41+382.578+449.383+381.842C449.653+343.433+394.976+342.089+370.135+357.633C353.761+370.75+350.111+393.804+352.781+413.423C358.867+423.277+371.262+425.26+380.646+430.764C381.767+428.521+382.888+426.279+384.01+424.036C383.788+423.922+383.567+423.807+383.345+423.692C375.899+418.943+366.37+417.087+360.488+410.156C360.095+394.986+362.974+376.607+375.906+366.086C395.476+355.089+439.599+351.318+441.5+381.535C441.931+382.766+444.207+382.656+445.444+383.242" fill="#000000" stroke-linecap="round" opacity="1" stroke-linejoin="round"/>
<path stroke="#000000" stroke-width="0.4" d="M570.29+394.108C571.569+394.52+572.996+395.531+574.165+395.5C583.467+380.631+604.309+372.672+619.9+382.327C623.87+384.974+626.325+389.311+628.823+393.266C630.067+395.153+631.151+397.134+632.215+399.125C644.735+412.446+625.878+438.432+609.491+427.705C609.412+427.689+609.333+427.672+609.254+427.656C608.71+430.106+608.165+432.555+607.621+435.005C634.096+449.627+658.527+407.96+637.791+388.424C635.327+383.967+632.416+379.697+628.769+376.127C609.328+360.666+579.484+370.318+567.791+390.885C568.437+391.962+569.446+393.061+570.29+394.108" fill="#000000" stroke-linecap="round" opacity="1" stroke-linejoin="round"/>
<path stroke="#000000" stroke-width="0.4" d="M424.174+397.345C425.42+397.021+426.957+397.011+427.99+396.456C431.145+381.834+416.085+366.602+401.431+369.273C392.058+372.11+389.555+389.177+398.427+394.073C401.821+395.728+406.527+393.202+406.169+389.152C402.58+378.565+382.109+379.813+379.561+391.044C377.324+403.814+393.765+417.158+405.282+409.086C405.349+409.062+405.416+409.037+405.483+409.013C404.688+406.629+403.894+404.244+403.099+401.86C396.87+407.299+387.276+399.681+388.477+392.743C389.987+390.339+400.321+395.289+395.992+390.043C395.813+388.724+396.191+387.342+397.014+386.294C397.84+385.223+399.116+384.511+400.462+384.381C405.879+388.058+402.048+380.718+404.668+377.889C404.749+377.985+403.453+379.158+403.316+379.016C412.807+377.068+422.063+387.324+420.396+396.614C421.653+396.861+422.912+397.131+424.174+397.345" fill="#000000" stroke-linecap="round" opacity="1" stroke-linejoin="round"/>
<path stroke="#000000" stroke-width="0.4" d="M585.318+409.367C586.526+409.151+587.768+408.985+588.95+408.73C590.197+400.944+598.977+394.049+606.834+395.027C603.03+391.713+605.706+398.093+600.398+398.982C599.787+400.443+599.898+402.181+600.692+403.552C601.476+404.961+602.934+405.898+604.494+406.211C608.631+406.6+613.078+405.185+612.792+410.67C608.218+412.859+602.567+412.772+597.724+411.527C597.702+411.521+597.679+411.515+597.656+411.51C596.983+413.934+596.31+416.359+595.636+418.784C603.498+420.897+614.269+422.103+620.229+415.324C625.818+406.527+617.023+394.277+606.889+396.308C607.506+396.366+610.674+398.596+610.188+400.415C610.71+402.296+608.937+404.712+607.656+405.301C615.515+402.792+617.724+390.978+610.993+386.126C597.775+381.454+581.683+394.66+581.401+408.187C582.072+409.448+584.069+408.919+585.318+409.367" fill="#000000" stroke-linecap="round" opacity="1" stroke-linejoin="round"/>
<path stroke="#000000" stroke-width="0.4" d="M387.183+546.003C386.834+544.752+387.292+542.924+386.179+542.107C368.023+540.997+352.401+529.883+334.859+525.664C334.851+525.661+334.843+525.658+334.834+525.655C333.821+527.969+332.808+530.284+331.795+532.598C349.478+539.572+366.323+552.745+386.377+549.852C387.137+548.738+386.926+547.283+387.183+546.003" fill="#000000" stroke-linecap="round" opacity="1" stroke-linejoin="round"/>
<path stroke="#000000" stroke-width="1" d="M538.574+575.328C536.827+595.89+543.379+628.201+559.014+646.875C560.243+648.18+561.47+649.534+563.007+643.378C546.57+625.003+552.159+592.33+538.574+575.328" fill="#040404" stroke-linecap="butt" opacity="1" stroke-linejoin="round"/>
<path stroke="#000000" stroke-width="1" d="M377.199+542.635C376.503+540.146+375.068+544.094+377.199+542.635" fill="#040404" stroke-linecap="butt" opacity="1" stroke-linejoin="round"/>
<path stroke="#000000" stroke-width="1" d="M336.018+528.518C335.225+528.292+334.394+528.069+333.53+527.851" fill="#040404" stroke-linecap="butt" opacity="1" stroke-linejoin="round"/>
<path stroke="#000000" stroke-width="1" d="M307.084+524.779C297.565+525.011+288.236+526.951+281.69+531.94C280.658+533.141+284.157+536.096+285.147+534.811C291.514+530.446+299.969+530.546+308.522+531.12" fill="#040404" stroke-linecap="butt" opacity="1" stroke-linejoin="round"/>
<path stroke="#000000" stroke-width="1" d="M332.145+530.392C333.517+529.918+334.813+529.304+336.018+528.518" fill="#040404" stroke-linecap="butt" opacity="1" stroke-linejoin="round"/>
<path stroke="#000000" stroke-width="1" d="M285.813+529.753C284.552+526.84+281.747+528.944+280.241+530.475C267.843+553.949+265.367+589.46+287.122+608.325C288.336+609.463+291.078+606.487+290.022+604.909C270.214+586.021+275.676+550.793+285.813+529.753" fill="#040404" stroke-linecap="butt" opacity="1" stroke-linejoin="round"/>
<path stroke="#000000" stroke-width="1" d="M313.022+538.988C317.124+554.303+330.437+580.172+313.808+594.531C312.595+595.486+311.277+596.426+316.374+598.209C335.005+585.016+328.536+548.942+313.333+539.035" fill="#040404" stroke-linecap="butt" opacity="1" stroke-linejoin="round"/>
<path stroke="#000000" stroke-width="1" d="M312.15+551.974C309.892+545.494+289.714+553.325+295.87+559.802C300.968+557.036+309.492+556.506+312.15+551.974" fill="#040404" stroke-linecap="butt" opacity="1" stroke-linejoin="round"/>
<path stroke="#000000" stroke-width="1" d="M305.155+568.023C292.855+557.62+294.709+580.534+305.155+568.023" fill="#040404" stroke-linecap="butt" opacity="1" stroke-linejoin="round"/>
<path stroke="#000000" stroke-width="1" d="M304.743+579.546C298.559+568.964+298.56+590.128+304.743+579.546" fill="#040404" stroke-linecap="butt" opacity="1" stroke-linejoin="round"/>
<path stroke="#000000" stroke-width="1" d="M405.975+626.87C383.97+613.506+348.955+623.512+324.199+609.204C322.738+608.57+321+612.85+322.556+613.366C347.816+626.247+380.606+626.431+405.975+626.87" fill="#040404" stroke-linecap="butt" opacity="1" stroke-linejoin="round"/>
<path stroke="#000000" stroke-width="1" d="M322.027+612.055C315.285+601.609+295.595+609.766+283.86+605.747C279.914+609.367+281.42+609.747+282.889+610.15C295.15+613.06+311.344+614.218+322.027+612.055" fill="#040404" stroke-linecap="butt" opacity="1" stroke-linejoin="round"/>
<path stroke="#000000" stroke-width="1" d="M-94.0468+490.019C-102.994+476.046-106.517+500.76-94.0468+490.019" fill="#040404" stroke-linecap="butt" opacity="1" stroke-linejoin="round"/>
<path stroke="#000000" stroke-width="1" d="M339.392+529.217C339.149+528.413+339.078+527.468+338.707+526.767C336.315+526.861+334.566+524.849+332.808+523.385C321.895+516.282+328.16+498.989+316.326+492.995C313.94+492.155+311.282+492.382+308.998+493.422C296.994+502.026+299.731+518.958+303.622+531.173C303.642+531.219+303.662+531.266+303.682+531.313C305.256+530.684+306.83+530.054+308.404+529.425C308.388+529.384+308.373+529.344+308.358+529.303C306.02+519.666+303.454+507.433+311.573+499.725C311.298+499.653+313.185+499.278+312.503+499.339C313.114+499.374+313.822+499.293+314.058+499.584C314.42+499.742+315.412+500.972+315.107+500.544C315.838+501.674+316.642+502.86+317.106+504.082C318.814+515.376+324.084+527.139+335.328+531.66C336.293+531.958+337.336+531.938+338.321+531.828C339.306+531.499+339.023+530.058+339.392+529.217" fill="#040404" stroke-linecap="butt" opacity="1" stroke-linejoin="round"/>
</g>
</svg>
